<?xml version="1.0" encoding="utf-8" standalone="no"?><svg width="605" height="138" xmlns="http://www.w3.org/2000/svg"><style type="text/css">.st0{fill:#FF9D28;} .st1{fill:#68C5ED;} .st2{fill:#044D80;} .st3{fill:#E54747;}</style><g><title>background</title><rect fill="none" id="canvas_background" height="140" width="607" y="-1" x="-1"/></g><g><title>Layer 1</title><path id="svg_1" d="m2.4,51l55,0l33.4,0l0,-33.1l-88.4,33.1z" class="st0"/><path id="svg_2" d="m90.8,17.9l0,117l41.8,-132.6l-41.8,15.6z" class="st1"/><path id="svg_3" d="m90.8,51l-33.4,0l33.4,83.8l0,-83.8z" class="st2"/><path id="svg_4" d="m2.4,51l63.6,21.5l-8.6,-21.5l-55,0z" class="st3"/><g id="svg_5"><path id="svg_6" d="m205,104c-0.5,0.5 -1.3,1.1 -2.4,1.8c-1.1,0.7 -2.6,1.5 -4.4,2.2c-1.8,0.7 -4,1.4 -6.7,1.9c-2.6,0.5 -5.6,0.8 -9,0.8c-6.5,0 -12.2,-1.1 -17,-3.1c-4.8,-2.1 -8.7,-5 -11.8,-8.8c-3.1,-3.8 -5.4,-8.2 -6.8,-13.3c-1.5,-5.1 -2.2,-10.8 -2.2,-16.9c0,-6.1 0.8,-11.8 2.4,-17c1.6,-5.2 3.9,-9.7 7.1,-13.5c3.1,-3.8 7.1,-6.8 11.8,-8.9c4.7,-2.1 10.3,-3.2 16.7,-3.2c3.1,0 6,0.3 8.5,0.8c2.5,0.6 4.8,1.2 6.7,2c1.9,0.8 3.5,1.6 4.7,2.4c1.3,0.8 2.2,1.6 2.8,2.1c0.7,0.6 1.4,1.4 1.9,2.3c0.5,0.9 0.8,1.9 0.8,2.9c0,1.6 -0.6,3.2 -1.8,4.8c-1.2,1.6 -2.5,3.1 -4,4.5c-1,-1 -2.1,-2 -3.3,-3c-1.2,-1 -2.6,-1.9 -4.1,-2.7c-1.5,-0.8 -3.2,-1.4 -5.1,-1.9c-1.9,-0.5 -4,-0.8 -6.4,-0.8c-4.1,0 -7.6,0.8 -10.4,2.5c-2.8,1.7 -5,3.8 -6.7,6.5c-1.7,2.7 -2.9,5.7 -3.6,9.1c-0.7,3.4 -1.1,6.9 -1.1,10.5c0,3.8 0.4,7.4 1.1,10.9c0.7,3.5 2,6.5 3.8,9.2c1.8,2.7 4.1,4.8 7,6.4c2.9,1.6 6.4,2.4 10.7,2.4c2.3,0 4.3,-0.3 6.2,-0.8c1.9,-0.6 3.6,-1.3 5,-2.1c1.5,-0.8 2.7,-1.7 3.8,-2.5c1.1,-0.9 2,-1.7 2.7,-2.3c0.5,0.6 1,1.3 1.7,2.1c0.7,0.8 1.3,1.7 1.8,2.5c0.6,0.9 1,1.8 1.5,2.7c0.4,0.9 0.6,1.7 0.6,2.4c0,1.1 -0.2,1.9 -0.6,2.7c-0.4,0.7 -1.1,1.5 -1.9,2.4l0,0zm62.4,-9.3c0,6.4 0.9,11.1 2.8,14c-1.5,0.6 -2.8,1 -4.1,1.2c-1.3,0.2 -2.6,0.4 -4,0.4c-2.9,0 -5.1,-0.6 -6.6,-1.7c-1.5,-1.1 -2.5,-2.8 -2.9,-4.9c-1.8,1.9 -4.1,3.5 -7.1,4.8c-2.9,1.3 -6.5,1.9 -10.7,1.9c-2.2,0 -4.4,-0.3 -6.6,-0.9c-2.2,-0.6 -4.2,-1.6 -6,-3c-1.8,-1.4 -3.2,-3.2 -4.4,-5.5c-1.1,-2.3 -1.7,-5.1 -1.7,-8.4c0,-4.1 1,-7.5 3,-10.1c2,-2.6 4.5,-4.6 7.5,-6.1c3,-1.5 6.3,-2.5 9.7,-3.1c3.5,-0.6 6.7,-0.9 9.6,-1.1c1,-0.1 1.9,-0.1 2.9,-0.1l2.6,0l0,-2.2c0,-3.1 -0.8,-5.3 -2.5,-6.7c-1.7,-1.3 -4.4,-2 -8.1,-2c-3.5,0 -6.6,0.6 -9.3,1.7c-2.7,1.1 -5.4,2.4 -8,3.9c-1.1,-1.4 -2.1,-2.9 -2.7,-4.6c-0.7,-1.7 -1,-2.9 -1,-3.7c0,-1.1 0.6,-2.2 1.9,-3.3c1.3,-1.1 3,-2 5.2,-2.9c2.2,-0.9 4.7,-1.5 7.6,-2.1c2.8,-0.5 5.8,-0.8 9,-0.8c4.4,0 8.1,0.4 11.1,1.3c3,0.9 5.5,2.3 7.4,4.1c1.9,1.9 3.3,4.2 4.1,7c0.8,2.8 1.2,6.1 1.2,9.8l0.1,23.1l0,0zm-15.6,-14.1l-1.7,0c-0.6,0 -1.1,0 -1.7,0.1c-2,0.2 -4,0.4 -6,0.7c-2,0.3 -3.8,0.9 -5.3,1.7c-1.5,0.8 -2.8,1.9 -3.8,3.2c-1,1.3 -1.5,3 -1.5,5c0,2.3 0.6,4.2 1.9,5.8c1.3,1.6 3.5,2.4 6.6,2.4c1.5,0 3,-0.2 4.4,-0.6c1.4,-0.4 2.6,-0.9 3.7,-1.6c1.1,-0.7 1.9,-1.4 2.5,-2.1c0.6,-0.8 0.9,-1.5 0.9,-2.1l0,-12.5l0,0zm45.9,-24c1.3,-1.5 3.3,-3.1 6.1,-4.7c2.8,-1.6 6.2,-2.4 10.4,-2.4c3,0 5.9,0.5 8.6,1.5c2.7,1 5.1,2.7 7.2,4.9c2.1,2.3 3.8,5.3 5,9c1.3,3.7 1.9,8.3 1.9,13.8c0,6.3 -0.7,11.6 -2.2,15.7c-1.5,4.1 -3.3,7.4 -5.6,9.7c-2.3,2.4 -4.9,4.1 -7.7,5.1c-2.8,1 -5.7,1.5 -8.5,1.5c-2.3,0 -4.4,-0.3 -6.1,-0.8c-1.7,-0.5 -3.2,-1.1 -4.4,-1.8c-1.2,-0.6 -2.1,-1.3 -2.8,-1.9c-0.6,-0.6 -1.1,-1.1 -1.2,-1.3l0,30l-16.6,0l0,-83.6c0.4,-0.1 0.9,-0.2 1.5,-0.2c0.5,-0.1 1.1,-0.1 1.7,-0.2c0.7,0 1.4,-0.1 2.3,-0.1c2.7,0 5,0.4 6.9,1.3c1.8,0.9 3,2.4 3.5,4.5l0,0zm22,22.5c0,-2.4 -0.2,-4.7 -0.6,-6.8c-0.4,-2.1 -1.1,-3.9 -2,-5.5c-0.9,-1.5 -2.2,-2.7 -3.8,-3.6c-1.6,-0.9 -3.5,-1.3 -5.8,-1.3c-3.4,0 -5.8,0.7 -7.1,1.9c-1.3,1.3 -2,2.7 -2,4.3l0,25.9c0.6,0.7 1.8,1.4 3.5,2.3c1.7,0.9 3.6,1.3 5.8,1.3c4.1,0 7.1,-1.6 9.1,-4.9c1.9,-3.2 2.9,-7.7 2.9,-13.6zm30,21c-0.6,-1.6 -0.9,-3.3 -1.1,-5.1c-0.2,-1.8 -0.2,-3.6 -0.2,-5.4l0,-56.5c0.6,-0.1 1.2,-0.2 1.8,-0.2c0.6,-0.1 1.2,-0.1 1.8,-0.2c0.6,0 1.3,-0.1 1.9,-0.1c1.3,0 2.6,0.1 3.9,0.4c1.3,0.2 2.5,0.7 3.5,1.5c1.1,0.7 1.9,1.7 2.6,3c0.6,1.3 1,2.9 1,4.9l0,8.7l17.1,0l0,12.3l-17,0l0,26c0,5.7 2.3,8.5 6.9,8.5c1.1,0 2.2,-0.2 3.2,-0.5c1,-0.4 1.9,-0.8 2.7,-1.2c0.8,-0.4 1.5,-0.9 2.1,-1.4c0.6,-0.5 1,-0.9 1.3,-1.1c1.2,1.8 2.2,3.3 2.8,4.6c0.6,1.3 1,2.5 1,3.7c0,1.1 -0.4,2.1 -1.3,3.1s-2.1,2 -3.6,2.8c-1.5,0.9 -3.4,1.6 -5.6,2.1c-2.2,0.5 -4.6,0.8 -7.2,0.8c-5,0 -9,-1 -11.8,-2.9c-2.6,-2.1 -4.6,-4.6 -5.8,-7.8l0,0zm74.3,-1.6c2,0 3.8,-0.2 5.4,-0.7c1.5,-0.4 2.9,-1 4.2,-1.6c1.2,-0.6 2.3,-1.4 3.2,-2.1c0.9,-0.8 1.7,-1.5 2.4,-2.1c1,1.2 2,2.8 3.1,4.7c1.1,1.9 1.6,3.5 1.6,4.7c0,1.8 -1,3.4 -3,4.9c-1.7,1.3 -4.1,2.4 -7.3,3.4c-3.1,0.9 -6.8,1.4 -11,1.4c-3.8,0 -7.6,-0.5 -11.3,-1.5c-3.7,-1 -7,-2.7 -9.9,-5.1c-2.9,-2.4 -5.2,-5.7 -7,-9.8c-1.8,-4.1 -2.7,-9.3 -2.7,-15.5c0,-5.1 0.8,-9.5 2.4,-13.2c1.6,-3.7 3.7,-6.8 6.3,-9.2c2.6,-2.4 5.6,-4.2 9,-5.4c3.3,-1.1 6.7,-1.7 10.2,-1.7c4.5,0 8.4,0.7 11.6,2.1c3.2,1.4 5.7,3.3 7.7,5.7c2,2.4 3.4,5.1 4.3,8.2c0.9,3.1 1.3,6.3 1.3,9.7l0,1.7c0,0.7 0,1.3 -0.1,2.1c0,0.7 -0.1,1.4 -0.1,2.1c0,0.7 -0.1,1.2 -0.2,1.6l-35.9,0c0.3,4.5 1.7,8.2 4.2,11.2c2.4,2.9 6.3,4.4 11.6,4.4l0,0zm5.6,-24.7c0,-3.9 -0.8,-7.1 -2.3,-9.5c-1.5,-2.4 -4.2,-3.7 -8.1,-3.7c-3.4,0 -6,1.2 -8,3.5c-2,2.3 -3,5.5 -3,9.7l21.4,0l0,0zm43.8,-16.9c0.5,-0.7 1.1,-1.5 1.9,-2.4c0.8,-0.9 1.8,-1.7 3,-2.4c1.2,-0.7 2.5,-1.3 3.9,-1.8c1.4,-0.5 2.9,-0.7 4.6,-0.7c1,0 2,0.1 3.1,0.2c1.1,0.2 2.1,0.5 3,0.9c0.9,0.4 1.7,1 2.3,1.8c0.6,0.8 0.9,1.7 0.9,2.8c0,1.8 -0.4,3.8 -1.3,6.1c-0.9,2.3 -1.8,4.3 -2.7,5.9c-1.4,-1.1 -2.8,-2 -4.1,-2.6c-1.4,-0.6 -3,-0.9 -4.9,-0.9c-2.5,0 -4.6,0.7 -6.3,2.2c-1.7,1.5 -2.6,3.2 -2.6,5.3l0,39.4l-16.6,0l0,-59.5c0.4,-0.1 0.9,-0.2 1.5,-0.2c0.5,-0.1 1.1,-0.1 1.7,-0.2c0.6,0 1.4,-0.1 2.3,-0.1c2.6,0 4.9,0.5 6.8,1.5c1.8,1.1 3,2.6 3.5,4.7l0,0zm47.1,0c0.5,-0.7 1.1,-1.5 1.9,-2.4c0.8,-0.9 1.8,-1.7 3,-2.4c1.2,-0.7 2.5,-1.3 3.9,-1.8c1.4,-0.5 2.9,-0.7 4.6,-0.7c1,0 2,0.1 3.1,0.2c1.1,0.2 2.1,0.5 3,0.9c0.9,0.4 1.7,1 2.3,1.8c0.6,0.8 0.9,1.7 0.9,2.8c0,1.8 -0.4,3.8 -1.3,6.1c-0.9,2.3 -1.8,4.3 -2.7,5.9c-1.4,-1.1 -2.8,-2 -4.1,-2.6c-1.4,-0.6 -3,-0.9 -4.9,-0.9c-2.5,0 -4.6,0.7 -6.3,2.2c-1.7,1.5 -2.6,3.2 -2.6,5.3l0,39.4l-16.6,0l0,-59.5c0.4,-0.1 0.9,-0.2 1.5,-0.2c0.5,-0.1 1.1,-0.1 1.7,-0.2c0.6,0 1.4,-0.1 2.3,-0.1c2.6,0 4.9,0.5 6.8,1.5c1.8,1.1 3,2.6 3.5,4.7l0,0zm79.1,37.8c0,6.4 0.9,11.1 2.8,14c-1.5,0.6 -2.8,1 -4.1,1.2c-1.3,0.2 -2.6,0.4 -4,0.4c-2.9,0 -5.1,-0.6 -6.6,-1.7c-1.5,-1.1 -2.5,-2.8 -2.9,-4.9c-1.8,1.9 -4.1,3.5 -7.1,4.8c-2.9,1.3 -6.5,1.9 -10.7,1.9c-2.2,0 -4.4,-0.3 -6.6,-0.9c-2.2,-0.6 -4.2,-1.6 -6,-3c-1.8,-1.4 -3.2,-3.2 -4.4,-5.5c-1.1,-2.3 -1.7,-5.1 -1.7,-8.4c0,-4.1 1,-7.5 3,-10.1c2,-2.6 4.5,-4.6 7.5,-6.1c3,-1.5 6.3,-2.5 9.7,-3.1c3.5,-0.6 6.7,-0.9 9.6,-1.1c1,-0.1 1.9,-0.1 2.9,-0.1l2.6,0l0,-2.2c0,-3.1 -0.8,-5.3 -2.5,-6.7c-1.7,-1.3 -4.4,-2 -8.1,-2c-3.5,0 -6.6,0.6 -9.3,1.7c-2.7,1.1 -5.4,2.4 -8,3.9c-1.1,-1.4 -2.1,-2.9 -2.7,-4.6c-0.7,-1.7 -1,-2.9 -1,-3.7c0,-1.1 0.6,-2.2 1.9,-3.3c1.3,-1.1 3,-2 5.2,-2.9c2.2,-0.9 4.7,-1.5 7.6,-2.1c2.8,-0.5 5.8,-0.8 9,-0.8c4.4,0 8.1,0.4 11.1,1.3c3,0.9 5.5,2.3 7.4,4.1c1.9,1.9 3.3,4.2 4.1,7c0.8,2.8 1.2,6.1 1.2,9.8l0.1,23.1l0,0zm-15.6,-14.1l-1.7,0c-0.6,0 -1.1,0 -1.7,0.1c-2,0.2 -4,0.4 -6,0.7c-2,0.3 -3.8,0.9 -5.3,1.7c-1.5,0.8 -2.8,1.9 -3.8,3.2c-1,1.3 -1.5,3 -1.5,5c0,2.3 0.6,4.2 1.9,5.8c1.3,1.6 3.5,2.4 6.6,2.4c1.5,0 3,-0.2 4.4,-0.6c1.4,-0.4 2.6,-0.9 3.7,-1.6c1.1,-0.7 1.9,-1.4 2.5,-2.1c0.6,-0.8 0.9,-1.5 0.9,-2.1l0,-12.5l0,0z" class="st2"/></g></g></svg>