<?xml version="1.0" encoding="UTF-8" standalone="no"?><!DOCTYPE svg PUBLIC "-//W3C//DTD SVG 1.1//EN" "http://www.w3.org/Graphics/SVG/1.1/DTD/svg11.dtd"><svg width="100%" height="100%" viewBox="0 0 605 138" version="1.1" xmlns="http://www.w3.org/2000/svg" xmlns:xlink="http://www.w3.org/1999/xlink" xml:space="preserve" xmlns:serif="http://www.serif.com/" style="fill-rule:evenodd;clip-rule:evenodd;stroke-linejoin:round;stroke-miterlimit:2;"><g><rect id="canvas_background" x="-1" y="-1" width="607" height="140" style="fill:none;"/></g><g><path id="svg_1" d="M2.4,51L90.8,51L90.8,17.9L2.4,51Z" style="fill:rgb(255,157,40);fill-rule:nonzero;"/><path id="svg_2" d="M90.8,17.9L90.8,134.9L132.6,2.3L90.8,17.9Z" style="fill:rgb(104,197,237);fill-rule:nonzero;"/><path id="svg_3" d="M90.8,51L57.4,51L90.8,134.8L90.8,51Z" style="fill:rgb(4,77,128);fill-rule:nonzero;"/><path id="svg_4" d="M2.4,51L66,72.5L57.4,51L2.4,51Z" style="fill:rgb(229,71,71);fill-rule:nonzero;"/><g id="svg_5"><path id="svg_6" d="M205,104C204.5,104.5 203.7,105.1 202.6,105.8C201.5,106.5 200,107.3 198.2,108C196.4,108.7 194.2,109.4 191.5,109.9C188.9,110.4 185.9,110.7 182.5,110.7C176,110.7 170.3,109.6 165.5,107.6C160.7,105.5 156.8,102.6 153.7,98.8C150.6,95 148.3,90.6 146.9,85.5C145.4,80.4 144.7,74.7 144.7,68.6C144.7,62.5 145.5,56.8 147.1,51.6C148.7,46.4 151,41.9 154.2,38.1C157.3,34.3 161.3,31.3 166,29.2C170.7,27.1 176.3,26 182.7,26C185.8,26 188.7,26.3 191.2,26.8C193.7,27.4 196,28 197.9,28.8C199.8,29.6 201.4,30.4 202.6,31.2C203.9,32 204.8,32.8 205.4,33.3C206.1,33.9 206.8,34.7 207.3,35.6C207.8,36.5 208.1,37.5 208.1,38.5C208.1,40.1 207.5,41.7 206.3,43.3C205.1,44.9 203.8,46.4 202.3,47.8C201.3,46.8 200.2,45.8 199,44.8C197.8,43.8 196.4,42.9 194.9,42.1C193.4,41.3 191.7,40.7 189.8,40.2C187.9,39.7 185.8,39.4 183.4,39.4C179.3,39.4 175.8,40.2 173,41.9C170.2,43.6 168,45.7 166.3,48.4C164.6,51.1 163.4,54.1 162.7,57.5C162,60.9 161.6,64.4 161.6,68C161.6,71.8 162,75.4 162.7,78.9C163.4,82.4 164.7,85.4 166.5,88.1C168.3,90.8 170.6,92.9 173.5,94.5C176.4,96.1 179.9,96.9 184.2,96.9C186.5,96.9 188.5,96.6 190.4,96.1C192.3,95.5 194,94.8 195.4,94C196.9,93.2 198.1,92.3 199.2,91.5C200.3,90.6 201.2,89.8 201.9,89.2C202.4,89.8 202.9,90.5 203.6,91.3C204.3,92.1 204.9,93 205.4,93.8C206,94.7 206.4,95.6 206.9,96.5C207.3,97.4 207.5,98.2 207.5,98.9C207.5,100 207.3,100.8 206.9,101.6C206.5,102.3 205.8,103.1 205,104ZM267.4,94.7C267.4,101.1 268.3,105.8 270.2,108.7C268.7,109.3 267.4,109.7 266.1,109.9C264.8,110.1 263.5,110.3 262.1,110.3C259.2,110.3 257,109.7 255.5,108.6C254,107.5 253,105.8 252.6,103.7C250.8,105.6 248.5,107.2 245.5,108.5C242.6,109.8 239,110.4 234.8,110.4C232.6,110.4 230.4,110.1 228.2,109.5C226,108.9 224,107.9 222.2,106.5C220.4,105.1 219,103.3 217.8,101C216.7,98.7 216.1,95.9 216.1,92.6C216.1,88.5 217.1,85.1 219.1,82.5C221.1,79.9 223.6,77.9 226.6,76.4C229.6,74.9 232.9,73.9 236.3,73.3C239.8,72.7 243,72.4 245.9,72.2C246.9,72.1 247.8,72.1 248.8,72.1L251.4,72.1L251.4,69.9C251.4,66.8 250.6,64.6 248.9,63.2C247.2,61.9 244.5,61.2 240.8,61.2C237.3,61.2 234.2,61.8 231.5,62.9C228.8,64 226.1,65.3 223.5,66.8C222.4,65.4 221.4,63.9 220.8,62.2C220.1,60.5 219.8,59.3 219.8,58.5C219.8,57.4 220.4,56.3 221.7,55.2C223,54.1 224.7,53.2 226.9,52.3C229.1,51.4 231.6,50.8 234.5,50.2C237.3,49.7 240.3,49.4 243.5,49.4C247.9,49.4 251.6,49.8 254.6,50.7C257.6,51.6 260.1,53 262,54.8C263.9,56.7 265.3,59 266.1,61.8C266.9,64.6 267.3,67.9 267.3,71.6L267.4,94.7ZM251.8,80.6L250.1,80.6C249.5,80.6 249,80.6 248.4,80.7C246.4,80.9 244.4,81.1 242.4,81.4C240.4,81.7 238.6,82.3 237.1,83.1C235.6,83.9 234.3,85 233.3,86.3C232.3,87.6 231.8,89.3 231.8,91.3C231.8,93.6 232.4,95.5 233.7,97.1C235,98.7 237.2,99.5 240.3,99.5C241.8,99.5 243.3,99.3 244.7,98.9C246.1,98.5 247.3,98 248.4,97.3C249.5,96.6 250.3,95.9 250.9,95.2C251.5,94.4 251.8,93.7 251.8,93.1L251.8,80.6ZM297.7,56.6C299,55.1 301,53.5 303.8,51.9C306.6,50.3 310,49.5 314.2,49.5C317.2,49.5 320.1,50 322.8,51C325.5,52 327.9,53.7 330,55.9C332.1,58.2 333.8,61.2 335,64.9C336.3,68.6 336.9,73.2 336.9,78.7C336.9,85 336.2,90.3 334.7,94.4C333.2,98.5 331.4,101.8 329.1,104.1C326.8,106.5 324.2,108.2 321.4,109.2C318.6,110.2 315.7,110.7 312.9,110.7C310.6,110.7 308.5,110.4 306.8,109.9C305.1,109.4 303.6,108.8 302.4,108.1C301.2,107.5 300.3,106.8 299.6,106.2C299,105.6 298.5,105.1 298.4,104.9L298.4,134.9L281.8,134.9L281.8,51.3C282.2,51.2 282.7,51.1 283.3,51.1C283.8,51 284.4,51 285,50.9C285.7,50.9 286.4,50.8 287.3,50.8C290,50.8 292.3,51.2 294.2,52.1C296,53 297.2,54.5 297.7,56.6ZM319.7,79.1C319.7,76.7 319.5,74.4 319.1,72.3C318.7,70.2 318,68.4 317.1,66.8C316.2,65.3 314.9,64.1 313.3,63.2C311.7,62.3 309.8,61.9 307.5,61.9C304.1,61.9 301.7,62.6 300.4,63.8C299.1,65.1 298.4,66.5 298.4,68.1L298.4,94C299,94.7 300.2,95.4 301.9,96.3C303.6,97.2 305.5,97.6 307.7,97.6C311.8,97.6 314.8,96 316.8,92.7C318.7,89.5 319.7,85 319.7,79.1ZM349.7,100.1C349.1,98.5 348.8,96.8 348.6,95C348.4,93.2 348.4,91.4 348.4,89.6L348.4,33.1C349,33 349.6,32.9 350.2,32.9C350.8,32.8 351.4,32.8 352,32.7C352.6,32.7 353.3,32.6 353.9,32.6C355.2,32.6 356.5,32.7 357.8,33C359.1,33.2 360.3,33.7 361.3,34.5C362.4,35.2 363.2,36.2 363.9,37.5C364.5,38.8 364.9,40.4 364.9,42.4L364.9,51.1L382,51.1L382,63.4L365,63.4L365,89.4C365,95.1 367.3,97.9 371.9,97.9C373,97.9 374.1,97.7 375.1,97.4C376.1,97 377,96.6 377.8,96.2C378.6,95.8 379.3,95.3 379.9,94.8C380.5,94.3 380.9,93.9 381.2,93.7C382.4,95.5 383.4,97 384,98.3C384.6,99.6 385,100.8 385,102C385,103.1 384.6,104.1 383.7,105.1C382.8,106.1 381.6,107.1 380.1,107.9C378.6,108.8 376.7,109.5 374.5,110C372.3,110.5 369.9,110.8 367.3,110.8C362.3,110.8 358.3,109.8 355.5,107.9C352.9,105.8 350.9,103.3 349.7,100.1ZM424,98.5C426,98.5 427.8,98.3 429.4,97.8C430.9,97.4 432.3,96.8 433.6,96.2C434.8,95.6 435.9,94.8 436.8,94.1C437.7,93.3 438.5,92.6 439.2,92C440.2,93.2 441.2,94.8 442.3,96.7C443.4,98.6 443.9,100.2 443.9,101.4C443.9,103.2 442.9,104.8 440.9,106.3C439.2,107.6 436.8,108.7 433.6,109.7C430.5,110.6 426.8,111.1 422.6,111.1C418.8,111.1 415,110.6 411.3,109.6C407.6,108.6 404.3,106.9 401.4,104.5C398.5,102.1 396.2,98.8 394.4,94.7C392.6,90.6 391.7,85.4 391.7,79.2C391.7,74.1 392.5,69.7 394.1,66C395.7,62.3 397.8,59.2 400.4,56.8C403,54.4 406,52.6 409.4,51.4C412.7,50.3 416.1,49.7 419.6,49.7C424.1,49.7 428,50.4 431.2,51.8C434.4,53.2 436.9,55.1 438.9,57.5C440.9,59.9 442.3,62.6 443.2,65.7C444.1,68.8 444.5,72 444.5,75.4L444.5,77.1C444.5,77.8 444.5,78.4 444.4,79.2C444.4,79.9 444.3,80.6 444.3,81.3C444.3,82 444.2,82.5 444.1,82.9L408.2,82.9C408.5,87.4 409.9,91.1 412.4,94.1C414.8,97 418.7,98.5 424,98.5ZM429.6,73.8C429.6,69.9 428.8,66.7 427.3,64.3C425.8,61.9 423.1,60.6 419.2,60.6C415.8,60.6 413.2,61.8 411.2,64.1C409.2,66.4 408.2,69.6 408.2,73.8L429.6,73.8ZM473.4,56.9C473.9,56.2 474.5,55.4 475.3,54.5C476.1,53.6 477.1,52.8 478.3,52.1C479.5,51.4 480.8,50.8 482.2,50.3C483.6,49.8 485.1,49.6 486.8,49.6C487.8,49.6 488.8,49.7 489.9,49.8C491,50 492,50.3 492.9,50.7C493.8,51.1 494.6,51.7 495.2,52.5C495.8,53.3 496.1,54.2 496.1,55.3C496.1,57.1 495.7,59.1 494.8,61.4C493.9,63.7 493,65.7 492.1,67.3C490.7,66.2 489.3,65.3 488,64.7C486.6,64.1 485,63.8 483.1,63.8C480.6,63.8 478.5,64.5 476.8,66C475.1,67.5 474.2,69.2 474.2,71.3L474.2,110.7L457.6,110.7L457.6,51.2C458,51.1 458.5,51 459.1,51C459.6,50.9 460.2,50.9 460.8,50.8C461.4,50.8 462.2,50.7 463.1,50.7C465.7,50.7 468,51.2 469.9,52.2C471.7,53.3 472.9,54.8 473.4,56.9ZM520.5,56.9C521,56.2 521.6,55.4 522.4,54.5C523.2,53.6 524.2,52.8 525.4,52.1C526.6,51.4 527.9,50.8 529.3,50.3C530.7,49.8 532.2,49.6 533.9,49.6C534.9,49.6 535.9,49.7 537,49.8C538.1,50 539.1,50.3 540,50.7C540.9,51.1 541.7,51.7 542.3,52.5C542.9,53.3 543.2,54.2 543.2,55.3C543.2,57.1 542.8,59.1 541.9,61.4C541,63.7 540.1,65.7 539.2,67.3C537.8,66.2 536.4,65.3 535.1,64.7C533.7,64.1 532.1,63.8 530.2,63.8C527.7,63.8 525.6,64.5 523.9,66C522.2,67.5 521.3,69.2 521.3,71.3L521.3,110.7L504.7,110.7L504.7,51.2C505.1,51.1 505.6,51 506.2,51C506.7,50.9 507.3,50.9 507.9,50.8C508.5,50.8 509.3,50.7 510.2,50.7C512.8,50.7 515.1,51.2 517,52.2C518.8,53.3 520,54.8 520.5,56.9ZM599.6,94.7C599.6,101.1 600.5,105.8 602.4,108.7C600.9,109.3 599.6,109.7 598.3,109.9C597,110.1 595.7,110.3 594.3,110.3C591.4,110.3 589.2,109.7 587.7,108.6C586.2,107.5 585.2,105.8 584.8,103.7C583,105.6 580.7,107.2 577.7,108.5C574.8,109.8 571.2,110.4 567,110.4C564.8,110.4 562.6,110.1 560.4,109.5C558.2,108.9 556.2,107.9 554.4,106.5C552.6,105.1 551.2,103.3 550,101C548.9,98.7 548.3,95.9 548.3,92.6C548.3,88.5 549.3,85.1 551.3,82.5C553.3,79.9 555.8,77.9 558.8,76.4C561.8,74.9 565.1,73.9 568.5,73.3C572,72.7 575.2,72.4 578.1,72.2C579.1,72.1 580,72.1 581,72.1L583.6,72.1L583.6,69.9C583.6,66.8 582.8,64.6 581.1,63.2C579.4,61.9 576.7,61.2 573,61.2C569.5,61.2 566.4,61.8 563.7,62.9C561,64 558.3,65.3 555.7,66.8C554.6,65.4 553.6,63.9 553,62.2C552.3,60.5 552,59.3 552,58.5C552,57.4 552.6,56.3 553.9,55.2C555.2,54.1 556.9,53.2 559.1,52.3C561.3,51.4 563.8,50.8 566.7,50.2C569.5,49.7 572.5,49.4 575.7,49.4C580.1,49.4 583.8,49.8 586.8,50.7C589.8,51.6 592.3,53 594.2,54.8C596.1,56.7 597.5,59 598.3,61.8C599.1,64.6 599.5,67.9 599.5,71.6L599.6,94.7ZM584,80.6L582.3,80.6C581.7,80.6 581.2,80.6 580.6,80.7C578.6,80.9 576.6,81.1 574.6,81.4C572.6,81.7 570.8,82.3 569.3,83.1C567.8,83.9 566.5,85 565.5,86.3C564.5,87.6 564,89.3 564,91.3C564,93.6 564.6,95.5 565.9,97.1C567.2,98.7 569.4,99.5 572.5,99.5C574,99.5 575.5,99.3 576.9,98.9C578.3,98.5 579.5,98 580.6,97.3C581.7,96.6 582.5,95.9 583.1,95.2C583.7,94.4 584,93.7 584,93.1L584,80.6Z" style="fill:white;fill-rule:nonzero;"/></g></g></svg>